<?xml version="1.0" encoding="UTF-8"?>
<svg width="77px" height="34px" viewBox="0 0 77 34" version="1.1" xmlns="http://www.w3.org/2000/svg" xmlns:xlink="http://www.w3.org/1999/xlink">
    <!-- Generator: Sketch 53.2 (72643) - https://sketchapp.com -->
    <title>Group@1.5x</title>
    <desc>Created with Sketch.</desc>
    <g id="Page-1" stroke="none" stroke-width="1" fill="none" fill-rule="evenodd">
        <g id="Explain-this-quote" transform="translate(-1039.000000, -779.000000)" fill="#2EB9AE" fill-rule="nonzero">
            <g id="Group" transform="translate(1039.000000, 779.000000)">
                <path d="M75.796875,12.0214286 L75.1953125,12.0214286 C75.1953125,11.05 74.9546875,10.2 74.59375,7.89285714 C74.353125,6.8 73.390625,5.95 72.3078125,5.95 C63.04375,5.82857143 57.8703125,0 43.3125,0 C29.596875,0 25.3859375,6.8 19.490625,7.16428571 C12.753125,7.52857143 7.940625,9.35 5.1734375,10.9285714 C3.9703125,11.5357143 3.0078125,12.6285714 2.5265625,13.8428571 L1.203125,13.8428571 C0.48125,13.8428571 0,14.3285714 0,15.0571429 L0,20.5214286 C0,21.25 0.48125,21.7357143 1.203125,21.7357143 L1.5640625,21.7357143 C1.8046875,22.7071429 2.165625,23.6785714 2.8875,24.4071429 C3.85,25.5 5.1734375,25.9857143 6.6171875,25.9857143 L8.6625,25.9857143 C9.0234375,30.4785714 12.753125,34 17.325,34 C21.7765625,34 25.50625,30.6 25.9875,26.1071429 L50.1703125,26.35 C50.6515625,30.7214286 54.38125,34 58.7125,34 C63.04375,34 66.7734375,30.7214286 67.2546875,26.4714286 C73.390625,26.1071429 73.9921875,20.4 74.1125,20.2785714 L75.796875,20.2785714 C76.51875,20.2785714 77,19.7928571 77,19.0642857 L77,13.2357143 C77,12.6285714 76.51875,12.0214286 75.796875,12.0214286 Z M63.04375,6.55714286 L60.5171875,9.35 C59.5546875,10.4428571 58.1109375,11.05 56.6671875,11.05 L45.8390625,11.05 L45.8390625,2.42857143 C53.2984375,2.91428571 57.8703125,4.85714286 63.04375,6.55714286 Z M43.3125,2.42857143 C43.3125,2.42857143 43.3125,2.42857143 43.3125,2.42857143 L43.4328125,11.1714286 L38.6203125,11.1714286 L39.8234375,8.74285714 C40.0640625,8.13571429 39.94375,7.40714286 39.3421875,7.16428571 C38.740625,6.8 38.01875,7.04285714 37.778125,7.65 L35.9734375,11.1714286 L35.853125,11.1714286 C31.1609375,11.1714286 28.2734375,9.22857143 25.025,8.01428571 C29.4765625,5.82857143 33.8078125,2.42857143 43.3125,2.42857143 Z M2.40625,19.3071429 L2.40625,16.2714286 L4.090625,16.2714286 C4.9328125,16.2714286 5.6546875,17 5.6546875,17.85 C5.6546875,18.7 4.9328125,19.4285714 4.090625,19.4285714 L2.40625,19.3071429 Z M17.325,31.5714286 C13.8359375,31.5714286 11.06875,28.7785714 11.06875,25.2571429 C11.06875,21.7357143 13.8359375,18.9428571 17.325,18.9428571 C20.8140625,18.9428571 23.58125,21.7357143 23.58125,25.2571429 C23.58125,28.7785714 20.8140625,31.5714286 17.325,31.5714286 Z M58.7125,31.5714286 C55.2234375,31.5714286 52.45625,28.7785714 52.45625,25.2571429 C52.45625,21.7357143 55.2234375,18.9428571 58.7125,18.9428571 C62.2015625,18.9428571 64.96875,21.7357143 64.96875,25.2571429 C64.96875,28.7785714 62.08125,31.5714286 58.7125,31.5714286 Z M67.2546875,24.0428571 C66.653125,19.7928571 63.04375,16.5142857 58.7125,16.5142857 C54.38125,16.5142857 50.771875,19.6714286 50.1703125,23.9214286 L25.8671875,23.6785714 C25.1453125,19.55 21.65625,16.5142857 17.325,16.5142857 C13.1140625,16.5142857 9.625,19.55 8.7828125,23.5571429 L6.6171875,23.5571429 C5.8953125,23.5571429 5.053125,23.1928571 4.571875,22.7071429 C4.33125,22.4642857 4.090625,22.1 3.9703125,21.7357143 C6.1359375,21.7357143 7.940625,19.9142857 7.940625,17.7285714 C7.940625,15.9071429 6.7375,14.3285714 5.053125,13.9642857 C5.4140625,13.6 5.775,13.2357143 6.1359375,12.9928571 C12.8734375,9.35 19.009375,9.83571429 21.5359375,9.22857143 C27.0703125,11.2928571 30.078125,13.6 35.7328125,13.6 L56.546875,13.6 C58.7125,13.6 60.7578125,12.6285714 62.2015625,11.05 L65.45,7.40714286 C67.4953125,8.01428571 69.6609375,8.37857143 72.0671875,8.37857143 C72.0671875,8.37857143 72.0671875,8.37857143 72.1875,8.37857143 C72.5484375,10.3214286 72.7890625,11.5357143 72.7890625,12.1428571 L71.946875,12.1428571 C69.6609375,12.1428571 67.85625,13.9642857 67.85625,16.2714286 C67.85625,18.4571429 69.540625,20.1571429 71.5859375,20.4 C71.225,23.0714286 69.1796875,23.9214286 67.2546875,24.0428571 Z M74.59375,17.85 L72.0671875,17.85 C71.1046875,17.85 70.3828125,17.1214286 70.3828125,16.15 C70.3828125,15.1785714 71.1046875,14.45 72.0671875,14.45 L74.59375,14.45 L74.59375,17.85 Z" id="Shape"></path>
                <path d="M39.7096774,16 L38.2903226,16 C37.516129,16 37,16.6 37,17.5 C37,18.4 37.516129,19 38.2903226,19 L39.7096774,19 C40.483871,19 41,18.4 41,17.5 C41,16.75 40.483871,16 39.7096774,16 Z" id="Path"></path>
            </g>
        </g>
    </g>
</svg>