<?xml version="1.0" encoding="UTF-8"?>
<svg width="61px" height="53px" viewBox="0 0 61 53" version="1.1" xmlns="http://www.w3.org/2000/svg" xmlns:xlink="http://www.w3.org/1999/xlink">
    <!-- Generator: Sketch 53.2 (72643) - https://sketchapp.com -->
    <title>engine@1.5x</title>
    <desc>Created with Sketch.</desc>
    <g id="Page-1" stroke="none" stroke-width="1" fill="none" fill-rule="evenodd">
        <g id="Explain-this-quote" transform="translate(-697.000000, -760.000000)" fill="#2EB9AE" fill-rule="nonzero">
            <g id="engine" transform="translate(697.000000, 760.000000)">
                <path d="M40.56035,0.4395 C40.2815,0.1605 39.8945,0 39.5,0 C39.10385,0 38.7185,0.1605 38.4395,0.4395 C38.1605,0.7185 38,1.1055 38,1.5 C38,1.8945 38.16035,2.2815 38.4395,2.5605 C38.71865,2.8395 39.1055,3 39.5,3 C39.8945,3 40.2815,2.8395 40.56035,2.5605 C40.8395,2.2815 41,1.8945 41,1.5 C41,1.1055 40.8395,0.7185 40.56035,0.4395 Z" id="Path"></path>
                <path d="M59.8085938,27.3286162 C59.1506992,27.3286162 58.6171875,27.8610162 58.6171875,28.5178054 L58.6171875,35.6378378 L54.5664062,35.6378378 L54.5664062,25.5281838 C54.5664062,25.2128108 54.440832,24.9102811 54.2174434,24.6873081 L50.525752,21.0023676 C50.3022441,20.7793946 49.9992695,20.6540541 49.6833086,20.6540541 L38.8398438,20.6540541 L38.8398438,17.0864865 L45.3925781,17.0864865 C47.6262266,17.0864865 49.4433594,15.2727351 49.4433594,13.0432432 C49.4433594,10.8137514 47.6262266,9 45.3925781,9 L38.7207031,9 C38.0628086,9 37.5292969,9.5324 37.5292969,10.1891892 C37.5292969,10.8459784 38.0628086,11.3783784 38.7207031,11.3783784 L45.3925781,11.3783784 C46.3123438,11.3783784 47.0605469,12.1251892 47.0605469,13.0432432 C47.0605469,13.9612973 46.3123438,14.7081081 45.3925781,14.7081081 L37.6484375,14.7081081 L28.1171875,14.7081081 L20.3730469,14.7081081 C19.4532812,14.7081081 18.7050781,13.9612973 18.7050781,13.0432432 C18.7050781,12.1251892 19.4532812,11.3783784 20.3730469,11.3783784 L27.5810547,11.3783784 C28.2389492,11.3783784 28.7724609,10.8459784 28.7724609,10.1891892 C28.7724609,9.5324 28.2389492,9 27.5810547,9 L20.3730469,9 C18.1393984,9 16.3222656,10.8137514 16.3222656,13.0432432 C16.3222656,15.2727351 18.1393984,17.0864865 20.3730469,17.0864865 L26.9257812,17.0864865 L26.9257812,20.6540541 L21.5247793,20.6540541 C21.2088184,20.6540541 20.9058438,20.7793946 20.6823359,21.0023676 L17.179125,24.4991784 L12.390625,24.4991784 C11.7327305,24.4991784 11.1992188,25.0315784 11.1992188,25.6883676 L11.1992188,30.8810811 L8.81640625,30.8810811 C8.15851172,30.8810811 7.625,31.4134811 7.625,32.0702703 L7.625,35.6378378 L6.1953125,35.6378378 L6.1953125,27.1390595 C6.1953125,25.4342378 4.80577539,24.0471676 3.09765625,24.0471676 C1.38953711,24.0471676 0,25.4342378 0,27.1390595 L0,46.6568649 C0,48.3616865 1.38953711,49.7487568 3.09765625,49.7487568 C4.80577539,49.7487568 6.1953125,48.3616865 6.1953125,46.6568649 L6.1953125,38.0162162 L7.625,38.0162162 L7.625,41.5837838 C7.625,42.240573 8.15851172,42.772973 8.81640625,42.772973 L11.1992188,42.772973 L11.1992188,45.3640973 C11.1992188,45.6794703 11.324793,45.982 11.5481816,46.204973 L18.0070332,52.6516865 C18.230541,52.8746595 18.5335156,53 18.8494766,53 L42.2353516,53 C42.5513125,53 42.8542871,52.8746595 43.0777949,52.6516865 L45.2903555,50.4432432 L53.375,50.4432432 C54.0328945,50.4432432 54.5664062,49.9108432 54.5664062,49.2540541 L54.5664062,38.0162162 L58.6171875,38.0162162 L58.6171875,45.1664541 C58.6171875,45.8232432 59.1506992,46.3556432 59.8085938,46.3556432 C60.4664883,46.3556432 61,45.8232432 61,45.1664541 L61,28.5178054 C61,27.8610162 60.4664883,27.3286162 59.8085938,27.3286162 Z M4.42028986,37.0583733 C4.41999517,37.0684461 4.41999517,37.1084972 4.42028986,37.1186898 L4.42028986,47.0005192 C4.42028986,47.3971929 4.02378986,47.72 3.53623188,47.72 C3.04867391,47.72 2.65217391,47.3973128 2.65217391,47.0005192 L2.65217391,27.3194808 C2.65217391,26.9226872 3.04867391,26.6 3.53623188,26.6 C4.02378986,26.6 4.42028986,26.9226872 4.42028986,27.3194808 L4.42028986,37.0583733 Z M10.6086957,40.68 L9.72463768,40.68 L9.72463768,33.64 L10.6086957,33.64 L10.6086957,40.68 Z M29.173913,16.92 L36.2463768,16.92 L36.2463768,20.44 L29.173913,20.44 L29.173913,16.92 Z M52.1594203,47.8318966 L44.7158705,47.8318966 C44.3974786,47.8318966 44.092173,47.9558324 43.8669456,48.1763066 L41.6372423,50.36 L19.0661181,50.36 L13.2608696,44.6742366 L13.2608696,26.8819148 L17.3827953,26.8819148 C17.7011872,26.8819148 18.0064928,26.757979 18.2317202,26.5375048 L21.7621238,23.08 L49.1426216,23.08 L52.1594203,26.0348238 L52.1594203,47.8318966 Z" id="Shape"></path>
                <path d="M40.56035,46.293 C40.2815,46.107 39.8945,46 39.5,46 C39.1055,46 38.7185,46.107 38.4395,46.293 C38.1605,46.479 38,46.737 38,47 C38,47.263 38.16035,47.521 38.4395,47.707 C38.71865,47.893 39.1055,48 39.5,48 C39.8945,48 40.2815,47.893 40.56035,47.707 C40.83935,47.521 41,47.263 41,47 C41,46.737 40.8395,46.479 40.56035,46.293 Z" id="Path"></path>
                <path d="M33.8254344,45.5465395 L22.9723022,45.5465395 L18.0053896,40.3592966 C17.5465584,39.8802345 16.802984,39.8802345 16.3440353,40.3592966 C15.8853216,40.8383587 15.8853216,41.6151631 16.3440353,42.0942253 L21.6550126,47.6406727 C21.8753831,47.8706962 22.174105,48 22.485631,48 L33.8253169,48 C34.4739769,48 35,47.4507654 35,46.7732084 C35,46.0956514 34.4740944,45.5465395 33.8254344,45.5465395 Z" id="Path"></path>
            </g>
        </g>
    </g>
</svg>