<?xml version="1.0" encoding="UTF-8"?>
<svg width="40px" height="50px" viewBox="0 0 40 50" version="1.1" xmlns="http://www.w3.org/2000/svg" xmlns:xlink="http://www.w3.org/1999/xlink">
    <!-- Generator: Sketch 53.2 (72643) - https://sketchapp.com -->
    <title>gearshift@1.5x</title>
    <desc>Created with Sketch.</desc>
    <g id="Page-1" stroke="none" stroke-width="1" fill="none" fill-rule="evenodd">
        <g id="Explain-this-quote" transform="translate(-824.000000, -762.000000)" fill="#2EB9AE" fill-rule="nonzero">
            <g id="gearshift" transform="translate(824.000000, 762.000000)">
                <path d="M36.1300488,40.7142578 L36.1300488,39.0298828 C36.1300488,35.924707 33.6062439,33.3983398 30.5040976,33.3983398 L28.6044878,33.3983398 L20.7828293,19.8375 C22.6612683,17.7304688 23.804878,14.9536133 23.804878,11.9140625 C23.804878,5.34462891 18.4654634,0 11.902439,0 C5.33941463,0 0,5.34462891 0,11.9140625 C0,18.4834961 5.33941463,23.828125 11.902439,23.828125 C12.4632195,23.828125 13.0147317,23.7881836 13.5550244,23.7126953 L19.146439,33.4066406 C16.1836098,33.5636719 13.8212683,36.0256836 13.8212683,39.0298828 L13.8212683,40.7142578 C11.5510244,41.6608398 9.95121951,43.9050781 9.95121951,46.5163086 L9.95121951,49.0234375 C9.95121951,49.562793 10.3880976,50 10.9268293,50 L39.0243902,50 C39.563122,50 40,49.562793 40,49.0234375 L40,46.5163086 C40,43.9050781 38.4001951,41.6608398 36.1300488,40.7142578 Z M11.902439,21.875 C6.41531707,21.875 1.95121951,17.406543 1.95121951,11.9140625 C1.95121951,6.42158203 6.41531707,1.953125 11.902439,1.953125 C17.389561,1.953125 21.8536585,6.42158203 21.8536585,11.9140625 C21.8536585,17.406543 17.389561,21.875 11.902439,21.875 Z M15.5450732,23.2567383 C16.9337561,22.8087891 18.2117073,22.1121094 19.3266341,21.2191406 L26.3515122,33.3984375 L21.3947317,33.3984375 L15.5450732,23.2567383 Z M38.0487805,48.046875 L11.902439,48.046875 L11.902439,46.5163086 C11.902439,44.1293945 13.842439,42.1875 16.2270244,42.1875 C16.7657561,42.1875 17.2026341,41.750293 17.2026341,41.2109375 C17.2026341,40.671582 16.7657561,40.234375 16.2270244,40.234375 L15.7723902,40.234375 L15.7723902,39.0299805 C15.7723902,37.0016602 17.4207805,35.3515625 19.447122,35.3515625 L30.5040976,35.3515625 C32.530439,35.3515625 34.1788293,37.0016602 34.1788293,39.0299805 L34.1788293,40.234375 L33.7241951,40.234375 L25.4634146,40.234375 C24.9246829,40.234375 24.4878049,40.671582 24.4878049,41.2109375 C24.4878049,41.750293 24.9246829,42.1875 25.4634146,42.1875 L33.7241951,42.1875 C36.1087805,42.1875 38.0487805,44.1293945 38.0487805,46.5163086 L38.0487805,48.046875 Z" id="Shape"></path>
                <path d="M17.9523189,10 C17.3737893,10 16.9046377,10.4690414 16.9046377,11.0476689 C16.9046377,14.2772132 14.277263,16.9046621 11.0476811,16.9046621 C10.4691516,16.9046621 10,17.3737035 10,17.9523311 C10,18.5309586 10.4691516,19 11.0476811,19 C15.4326457,19 19,15.4325825 19,11.0476689 C19,10.4690414 18.5309532,10 17.9523189,10 Z" id="Path"></path>
                <path d="M16.6185767,6.22652028 C16.1826708,5.87606744 15.5693567,5.93892093 15.2221549,6.36888245 C14.8749531,6.79874483 14.9416047,7.41320216 15.3739506,7.76762052 C15.3788951,7.77168518 15.3839385,7.7756507 15.3887841,7.77961622 C15.5768723,7.92782753 15.796902,8 16.013866,8 C16.3034151,8 16.5876242,7.87151715 16.7837225,7.62387042 C17.1268699,7.19043907 17.0542848,6.5766757 16.6185767,6.22652028 Z" id="Path"></path>
                <path d="M21.707,40.293 C21.5209,40.107 21.2629,40 21,40 C20.737,40 20.479,40.107 20.2931,40.293 C20.1071,40.479 20,40.737 20,41 C20,41.263 20.107,41.521 20.2931,41.707 C20.479,41.893 20.737,42 21,42 C21.263,42 21.521,41.893 21.707,41.707 C21.894,41.521 22,41.263 22,41 C22,40.737 21.894,40.479 21.707,40.293 Z" id="Path"></path>
            </g>
        </g>
    </g>
</svg>