<?xml version="1.0" encoding="UTF-8"?>
<svg width="51px" height="41px" viewBox="0 0 51 41" version="1.1" xmlns="http://www.w3.org/2000/svg" xmlns:xlink="http://www.w3.org/1999/xlink">
    <!-- Generator: Sketch 53.2 (72643) - https://sketchapp.com -->
    <title>Asset 4@1.5x</title>
    <desc>Created with Sketch.</desc>
    <g id="Page-1" stroke="none" stroke-width="1" fill="none" fill-rule="evenodd">
        <g id="Grading-Methodology" transform="translate(-1012.000000, -1012.000000)">
            <g id="Asset-4" transform="translate(1012.000000, 1012.000000)">
                <path d="M44.9565957,25.2612 C40.5588255,25.7184 41.4543319,26.802 40.446434,27.6444 C39.7859056,28.3627719 38.8213561,28.7274409 37.8469277,28.6272 L44.6339234,40.23 L46.3052936,35.9316 L51.0547404,36.5472 L44.9565957,25.2612 Z" id="Path" fill="#000000" fill-rule="nonzero"></path>
                <path d="M39.8989787,26.2368 C40.5627041,25.0376999 41.8422803,24.3039347 43.219966,24.3324 C44.6883064,24.3324 45.4279149,23.5764 45.4496681,22.1148 C45.4213631,20.7497318 46.1589002,19.4820013 47.3639489,18.8244 C48.625634,18.0756 48.8975489,17.0712 48.1796936,15.8004 C47.4655591,14.6298135 47.4655591,13.1621865 48.1796936,11.9916 C48.9048,10.7244 48.625634,9.7236 47.3639489,8.9748 C46.1577608,8.31298478 45.4205621,7.04167704 45.4496681,5.6736 C45.4279149,4.2336 44.6883064,3.4776 43.219966,3.4596 C41.8418574,3.48970188 40.5614879,2.7554817 39.8989787,1.5552 C39.1448681,0.3072 38.1309277,0.0384 36.8571574,0.7488 C35.678269,1.45790535 34.2002332,1.45790535 33.0213447,0.7488 C31.7415319,0.0288 30.733634,0.306 29.9795234,1.5552 C29.3182375,2.75666872 28.0370688,3.49134715 26.6585362,3.4596 C25.2083234,3.4776 24.4505872,4.2192 24.4324596,5.6736 C24.4583974,7.04182122 23.7203707,8.31215115 22.5145532,8.9748 C21.2528681,9.7236 20.9773277,10.7244 21.6988085,11.9916 C22.4170574,13.1610423 22.4170574,14.6309577 21.6988085,15.8004 C20.9737021,17.0712 21.2528681,18.0792 22.5145532,18.8244 C23.7204101,19.4816424 24.459226,20.7491705 24.4324596,22.1148 C24.4324596,23.5728 25.1974468,24.318 26.6585362,24.3324 C28.0368807,24.3050259 29.3170017,25.038303 29.9831489,26.2368 C30.7324255,27.4896 31.7451574,27.7584 33.0213447,27.0432 C34.2022555,26.341322 35.6762467,26.341322 36.8571574,27.0432 C38.1333447,27.7584 39.1472851,27.4896 39.8989787,26.2368 Z M34.9392511,23.832 C29.4142512,23.8260369 24.9396597,19.3749011 24.9436622,13.8888078 C24.9476647,8.40271459 29.4287465,3.95802097 34.9537493,3.96000652 C40.478752,3.96199208 44.9565925,8.40990532 44.9565957,13.896 C44.9565973,16.5330633 43.9008545,19.0619619 42.0219247,20.9256341 C40.1429948,22.7893063 37.5950154,23.8348664 34.9392511,23.832 L34.9392511,23.832 Z" id="Shape" fill="#000000" fill-rule="nonzero"></path>
                <path d="M26.466383,25.5132 C24.9219064,25.5132 24.7188766,24.7932 24.7188766,24.7932 L18.7077447,36.5508 L23.5333277,36 L26.2053447,39.9888 C26.2053447,39.9888 31.7669106,28.4688 31.7669106,28.5444 C28.8846128,28.4832 30.0302809,25.5888 26.466383,25.5132 Z" id="Path" fill="#000000" fill-rule="nonzero"></path>
                <path d="M23.460817,24.0984 C23.1405544,23.4936828 22.9761347,22.8196091 22.9822468,22.1364 C23.0170575,21.2697504 22.5455031,20.4608558 21.7713191,20.0592 C19.8244085,18.9108 19.3240851,17.0532 20.4334979,15.0948 C20.9015883,14.363178 20.9015883,13.428822 20.4334979,12.6972 C19.3458383,10.746 19.8244085,8.892 21.7713191,7.74 C22.5452792,7.33083452 23.0156283,6.51841426 22.9822468,5.6484 C23.0112511,3.6648 24.0699064,2.376 25.8826723,2.0844 C24.9593702,2.0484 24.0348596,2.04 23.1091404,2.0592 C20.4052018,1.99921747 17.7011542,2.17388133 15.0278298,2.5812 C13.4144681,2.88 11.0614979,3.5028 9.4517617,5.8032 C8.54175319,7.092 7.07341277,10.314 5.92774468,13.1508 C5.21341468,12.4319331 4.25341301,12.0054155 3.2376,11.9556 L2.34209362,11.9556 C1.05359043,11.980728 0.0173520711,13.01604 0,14.2956 L0,16.002 C0.0327695493,17.3219982 1.10682558,18.3821423 2.43635745,18.4068 L3.62553191,18.4068 C3.50588936,18.5652 3.38987234,18.7308 3.26297872,18.8964 C1.78383712,21.1679951 1.26299917,23.9258045 1.81276596,26.5752 L2.95480851,32.418 C3.05751997,33.0120658 3.34836076,33.5581234 3.78505532,33.9768 C3.97669655,34.1524729 4.19589388,34.2959541 4.43402553,34.4016 L4.43402553,36.108 C4.36381114,37.1810037 4.98699806,38.1800449 5.98575319,38.5956 L5.98575319,38.2536 L6.34830638,38.2536 L6.34830638,38.7144 C6.50108641,38.7558914 6.65785511,38.7812321 6.816,38.79 C6.90413951,38.7953339 6.99252432,38.7953339 7.08066383,38.79 L7.67525106,38.79 L7.67525106,38.25 L8.03780426,38.25 L8.03780426,38.79 L9.35387234,38.79 L9.35387234,38.25 L9.71642553,38.25 L9.71642553,38.7864 C11.201488,38.7570205 12.3903902,37.554096 12.3920681,36.0792 L12.3920681,35.5104 C14.088817,35.622 15.792817,35.7084 17.4931915,35.766 L23.460817,24.0984 Z" id="Path" fill="#2EB9AE" fill-rule="nonzero"></path>
                <text id="B" fill="#000000" font-family="Dax-Bold" font-size="20.5668" font-weight="bold">
                    <tspan x="28.7649702" y="21.5056">B</tspan>
                </text>
            </g>
        </g>
    </g>
</svg>