<?xml version="1.0" encoding="UTF-8"?>
<svg width="53px" height="64px" viewBox="0 0 53 64" version="1.1" xmlns="http://www.w3.org/2000/svg" xmlns:xlink="http://www.w3.org/1999/xlink">
    <!-- Generator: Sketch 53.2 (72643) - https://sketchapp.com -->
    <title>Group 9@1.5x</title>
    <desc>Created with Sketch.</desc>
    <g id="Page-1" stroke="none" stroke-width="1" fill="none" fill-rule="evenodd">
        <g id="Explain-this-quote" transform="translate(-935.000000, -748.000000)" stroke="#2EB9AE" stroke-width="2">
            <g id="Group-9" transform="translate(936.000182, 749.000000)">
                <path d="M40.5787124,47.1419699 C38.2546513,46.5073681 35.7656779,48.0751449 35.1180425,50.3524345 L32,62 L40.7370718,62 L43.8551143,52.4927442 C44.5027497,50.2154547 42.9027735,47.7765717 40.5787124,47.1419699 Z" id="Path"></path>
                <path d="M49,10 C46.475,10 46,8.61111111 46,6.66666667 C46,4.72222222 47,0 50,0 C51,0 51,4.44444444 51,6.66666667 C51,7.77777778 51,10 49,10 Z" id="Path"></path>
                <path d="M48.5,13 L48.5,10" id="Path"></path>
                <polygon id="Path" points="1 56 3.14384871 62 32.1169232 62 33 58.982"></polygon>
                <path d="M48.5997755,13 C46.2595854,13 44.7431422,14.608536 43.053005,18.2277419 C41.3628677,21.8469478 27.6680754,37.8872684 33.38854,50.8456342 C33.6652025,51.4708185 33.9772278,52.5538994 34.3318966,53 L34.927865,50.6568993 C35.5446351,48.3749229 37.9160277,46.8039195 40.1282874,47.4398274 C41.1777326,47.7411598 42.0618044,48.4553497 42.6463319,49.3593469 L49.6398599,17.9146135 C49.6398599,17.9146135 50.9399655,13 48.5997755,13 Z" id="Path"></path>
                <path d="M34,52.7249096 C27.4972311,51.2387331 11.9702115,47.7746711 5.52853112,47.0697041 C-2.72158044,46.1658435 0.56982753,54.3260024 1.05221628,55.7072074 L32.4317099,59 L34,52.7249096 Z" id="Path"></path>
            </g>
        </g>
    </g>
</svg>