<?xml version="1.0" encoding="UTF-8"?>
<svg width="44px" height="50px" viewBox="0 0 44 50" version="1.1" xmlns="http://www.w3.org/2000/svg" xmlns:xlink="http://www.w3.org/1999/xlink">
    <!-- Generator: Sketch 53.2 (72643) - https://sketchapp.com -->
    <title>snowflake@1.5x</title>
    <desc>Created with Sketch.</desc>
    <g id="Page-1" stroke="none" stroke-width="1" fill="none" fill-rule="evenodd">
        <g id="Explain-this-quote" transform="translate(-1171.000000, -763.000000)" fill="#2EB9AE" fill-rule="nonzero">
            <g id="snowflake" transform="translate(1171.000000, 763.000000)">
                <path d="M30.0969927,40 C29.9298022,40 29.7621511,39.9491127 29.6216743,39.8482387 L22,34.3924858 L14.3778651,39.8482387 C14.1194798,40.0319735 13.7749662,40.049086 13.4995394,39.8946227 C13.2231916,39.7388084 13.0675157,39.4379877 13.1020591,39.1281603 L14.1231644,29.9463738 L5.48038475,26.22034 C5.18837722,26.0942475 5,25.8118904 5,25.4998114 C5,25.1881827 5.18837722,24.9058255 5.48038475,24.779733 L14.1231644,21.0536993 L13.1020591,11.8719128 C13.067055,11.5620855 13.2231916,11.2612648 13.4995394,11.1054504 C13.7758873,10.9509872 14.1199405,10.9680997 14.3778651,11.1518345 L22,16.6075873 L29.6216743,11.1518345 C29.8786778,10.9676494 30.2236521,10.9496361 30.4995394,11.1054504 C30.7754267,11.2612648 30.9320238,11.5620855 30.8974804,11.8719128 L29.8763749,21.0536993 L38.5200758,24.779733 C38.8116228,24.9058255 39,25.1881827 39,25.4998114 C39,25.8118904 38.8116228,26.0942475 38.5200758,26.22034 L29.8763749,29.9463738 L30.8974804,39.1281603 C30.9320238,39.4379877 30.7758873,39.7388084 30.4995394,39.8946227 C30.3747223,39.9648742 30.2356271,40 30.0969927,40 Z M7.79986456,25.4998114 L15.3119209,28.7385876 C15.632945,28.8768391 15.8254673,29.202428 15.7872393,29.5433281 L14.8992415,37.5240835 L21.5242211,32.7821043 C21.8074777,32.5803563 22.1925223,32.5803563 22.4757789,32.7821043 L29.0998374,37.5240835 L28.2123002,29.5433281 C28.1745327,29.2028783 28.3665944,28.8768391 28.6876185,28.7385876 L36.2001354,25.4998114 L28.6876185,22.2614854 C28.3661339,22.1227838 28.1745327,21.7971949 28.2123002,21.4562948 L29.0998374,13.4759896 L22.4757789,18.2179688 C22.1925223,18.4197168 21.8074777,18.4197168 21.5242211,18.2179688 L14.8992415,13.4759896 L15.7872393,21.4562948 C15.8254673,21.7967444 15.632945,22.1227838 15.3119209,22.2614854 L7.79986456,25.4998114 Z" id="Shape"></path>
                <path d="M21.9997139,50 C21.4469241,50 21,49.6418411 21,49.2004318 L21,0.799568197 C21,0.35770162 21.4469241,0 21.9997139,0 C22.5525037,0 23,0.35770162 23,0.799568197 L23,49.2004318 C23,49.6418411 22.5525037,50 21.9997139,50 Z" id="Path"></path>
                <path d="M22.1344887,10 C21.9888356,10 21.8436493,9.96140039 21.7143356,9.88420118 L14.3962023,5.50989248 C14.0096615,5.2787601 13.8845492,4.77975584 14.1165671,4.39469029 C14.3481181,4.00962451 14.8495009,3.88498984 15.2360417,4.11612223 L22.1536289,8.25139263 L29.7934128,4.09938024 C30.1860225,3.8845247 30.6841374,4.03008705 30.9002827,4.42398868 C31.1159614,4.81789042 30.9703083,5.3113139 30.5739639,5.52663447 L22.5247642,9.90094328 C22.4029198,9.96698105 22.2689377,10 22.1344887,10 L22.1344887,10 Z" id="Path"></path>
                <path d="M14.8170029,45.9997831 C14.5285018,45.9997831 14.2484036,45.8467775 14.0999516,45.576576 C13.8838091,45.1826679 14.029927,44.6887715 14.4253323,44.4734474 L22.4758208,40.0990683 C22.7297765,39.9609447 23.0374177,39.9679206 23.2857714,40.1158106 L30.6038032,44.4901897 C30.9903387,44.7213258 31.1154492,45.2203381 30.8834346,45.60541 C30.6514198,45.9900167 30.1514446,46.1151186 29.7639754,45.8839825 L22.8469509,41.7486454 L15.2072729,45.9007246 C15.0826293,45.9681588 14.9491158,45.9997831 14.8170029,45.9997831 L14.8170029,45.9997831 Z" id="Path"></path>
                <path d="M43.2100805,38 C43.0769341,38 42.9419823,37.9657426 42.8183141,37.8925986 L1.39624496,13.5115515 C1.0184703,13.2888788 0.888031882,12.7949248 1.10467686,12.4074465 C1.32132185,12.0190422 1.8024543,11.8843275 2.1811317,12.1083892 L43.6036522,36.4894361 C43.9809755,36.7121088 44.1123165,37.2060628 43.8952202,37.5935411 C43.7494362,37.8541748 43.4835947,38 43.2100805,38 Z" id="Path"></path>
                <path d="M0.75956319,22 C0.492089851,22 0.23330071,21.8482969 0.0947877031,21.5802569 C-0.107988268,21.1870386 0.0253141084,20.6923746 0.392221614,20.4745921 L7.48243614,16.2790222 L7.48243614,7.81296138 C7.48243614,7.36390141 7.82242257,7 8.24143516,7 C8.66044775,7 9,7.36390141 9,7.81296138 L9,16.758795 C9,17.0552212 8.85019748,17.3274493 8.60834255,17.4707762 L1.1260364,21.8990197 C1.00923395,21.9674258 0.883747185,22 0.75956319,22 Z" id="Path"></path>
                <path d="M35.7589742,43 C35.3395411,43 35,42.6361035 35,42.1870497 L35,33.2413395 C35,32.9449175 35.1506659,32.6726931 35.3920787,32.5293681 L42.8741388,28.1011857 C43.2419026,27.884337 43.7025842,28.0276619 43.9049194,28.4199441 C44.108123,28.8131571 43.9748249,29.3078143 43.6079296,29.5251283 L36.5179481,33.7211057 L36.5179481,42.1870497 C36.5179481,42.6361035 36.1784071,43 35.7589742,43 L35.7589742,43 Z" id="Path"></path>
                <path d="M1.78956462,38 C1.51605079,38 1.25066108,37.8541725 1.10487725,37.5935347 C0.88778127,37.2060502 1.01867081,36.7116255 1.39644491,36.4894122 L42.8180018,12.1079794 C43.1962273,11.8848401 43.6782617,12.018631 43.8949063,12.4070415 C44.1124536,12.794526 43.9811128,13.2889506 43.6037901,13.511164 L2.1813305,37.8925969 C2.05766245,37.9657421 1.92316217,38 1.78956462,38 L1.78956462,38 Z" id="Path"></path>
                <path d="M43.1706176,22 C43.0221989,22 42.8728318,21.9613763 42.7376901,21.8799405 L35.394993,17.451697 C35.1498412,17.3037166 35,17.0417261 35,16.758795 L35,7.81296138 C35,7.36390141 35.3708097,7 35.8288688,7 C36.2869279,7 36.6572635,7.36390141 36.6572635,7.81296138 L36.6572635,16.3041509 L43.6049677,20.4941366 C43.9952189,20.729137 44.1170835,21.2303159 43.8766737,21.6123659 C43.7206679,21.8622572 43.4489621,22 43.1706176,22 L43.1706176,22 Z" id="Path"></path>
                <path d="M8.24143516,43 C7.82242257,43 7.48243614,42.6361058 7.48243614,42.1870549 L7.48243614,33.7211648 L0.392221614,29.5252143 C0.0253141084,29.3079016 -0.107988268,28.8132475 0.0947877031,28.420037 C0.297563785,28.0272921 0.758260533,27.8844334 1.1260364,28.1012807 L8.60834255,32.5289696 C8.85019748,32.6727589 9,32.9449816 9,33.2414017 L9,42.1870549 C9,42.6361058 8.66044775,43 8.24143516,43 Z" id="Path"></path>
            </g>
        </g>
    </g>
</svg>